<svg width="220" height="208" viewBox="0 0 220 208" fill="none" xmlns="http://www.w3.org/2000/svg">
<path d="M103 111L104.361 104H105.38L104.019 111H103Z" fill="#D5D8DF"/>
<path d="M114.668 104L110.213 111H109.027L113.483 104H114.668Z" fill="#D5D8DF"/>
<path d="M102 111L103.361 104H104.38L103.019 111H102Z" fill="#939393"/>
<path d="M113.668 104L109.213 111H108.027L112.483 104H113.668Z" fill="#939393"/>
<path d="M119.458 102L118.185 104H117L118.273 102H119.458Z" fill="#939393"/>
<path d="M118.458 102L117.185 104H116L117.273 102H118.458Z" fill="#939393"/>
<path d="M104 115L104.778 111H105.796L105.019 115H104Z" fill="#939393"/>
<path d="M111.99 111L109.444 115H108.259L110.805 111H111.99Z" fill="#939393"/>
<path d="M105 116L105.194 115H106.213L106.019 116H105Z" fill="#E2E2E2"/>
<path d="M110.638 115L110.002 116H108.817L109.453 115H110.638Z" fill="#E2E2E2"/>
<path d="M104 116L104.194 115H105.213L105.019 116H104Z" fill="#D5D8DF"/>
<path d="M109.638 115L109.002 116H107.817L108.453 115H109.638Z" fill="#D5D8DF"/>
<path d="M104 124L104.389 122H105.408L105.344 122.328L105.553 122H106.738L105.465 124H104Z" fill="#D5D8DF"/>
<path d="M106.109 124L104 127.313L104.644 124H106.109Z" fill="#939393"/>
<path d="M101 122L102.166 116H103.185L102.019 122H101Z" fill="#E2E2E2"/>
<path d="M107.168 116L103.349 122H102.164L105.983 116H107.168Z" fill="#E2E2E2"/>
<path d="M100 122L101.166 116H102.185L101.019 122H100Z" fill="#939393"/>
<path d="M106.168 116L102.349 122H101.164L104.983 116H106.168Z" fill="#939393"/>
<path d="M106.194 110L106 111H107.019L107.213 110H106.194Z" fill="#D5D8DF"/>
<path d="M112.664 110L112.027 111H113.213L113.849 110H112.664Z" fill="#D5D8DF"/>
<path d="M93.418 103.267H104.837L104.695 104H105.714L106.051 102.267H94.8086L94.8248 102.219C94.8548 102.145 94.8854 102.072 94.9166 102H93.8434L93.418 103.267Z" fill="#939393"/>
<path d="M122.367 99L121.73 100H120.545L121.181 99H122.367Z" fill="#D5D8DF"/>
<path d="M99.6618 99C99.4279 99.321 99.207 99.6542 99 100H100.185C100.418 99.6527 100.667 99.3195 100.931 99H99.6618Z" fill="#D5D8DF"/>
<path d="M123.367 99L122.73 100H121.545L122.181 99H123.367Z" fill="#E2E2E2"/>
<path d="M100.662 99C100.428 99.321 100.207 99.6542 100 100H101.185C101.418 99.6527 101.667 99.3195 101.931 99H100.662Z" fill="#E2E2E2"/>
<path d="M115.705 100L114.432 102H113.247L114.52 100H115.705Z" fill="#939393"/>
<path d="M92.0435 101.871L92 102H93.0732C93.3801 101.287 93.7442 100.621 94.1603 100H92.9749C92.6234 100.587 92.3117 101.21 92.0435 101.871Z" fill="#939393"/>
<path d="M91.7487 101.5H91.7485C91.9071 101.155 92.0784 100.822 92.2618 100.5H92.2631C92.0788 100.823 91.9072 101.156 91.7487 101.5Z" fill="#D5D8DF" stroke="#939393"/>
<path d="M116.705 100L115.432 102H114.247L115.52 100H116.705Z" fill="#D5D8DF"/>
<path d="M93.0435 101.871L93 102H94.0732C94.3801 101.287 94.7442 100.621 95.1603 100H93.9749C93.6234 100.587 93.3117 101.21 93.0435 101.871Z" fill="#D5D8DF"/>
<path d="M117.705 100L116.432 102H115.247L116.52 100H117.705Z" fill="#EEEEEE"/>
<path d="M94.0435 101.871L94 102H95.0732C95.3801 101.287 95.7442 100.621 96.1603 100H94.9749C94.6234 100.587 94.3117 101.21 94.0435 101.871Z" fill="#EEEEEE"/>
<path fill-rule="evenodd" clip-rule="evenodd" d="M106.301 76.2277L116.653 76.1489H126.666L126.19 77.5525C123.261 84.7707 115.917 87.5491 107.304 87.5491H98.4668L100.277 80.7892C101.028 77.7386 102.03 76.2277 106.301 76.2277ZM116.653 77.1489L106.301 77.2277C104.255 77.2277 103.231 77.5956 102.623 78.1211C102 78.6597 101.619 79.5235 101.249 81.028L101.246 81.038L99.7699 86.5491H107.304C115.745 86.5491 122.544 83.8391 125.252 77.2031L125.27 77.1489H116.653Z" fill="#939393"/>
<path d="M121.033 51H119.793L118 54H121.094C121.027 53.1225 121.002 52.1303 121.033 51Z" fill="#FFE9BA"/>
<path d="M123.28 50H122.598L122 51H123.24C123.249 50.678 123.262 50.3449 123.28 50Z" fill="#FFEFF3"/>
<path d="M122.28 50H121.598L121 51H122.24C122.249 50.678 122.262 50.3449 122.28 50Z" fill="#FEF1D6"/>
<path d="M121.683 50H121L121.768 48.7153C121.732 49.1608 121.704 49.5888 121.683 50Z" fill="#FFEFF3"/>
<path d="M124.051 60H115.598L115 61H124.701C124.665 60.9456 124.629 60.8909 124.592 60.8358C124.416 60.571 124.233 60.2968 124.051 60Z" fill="#FFF8EB"/>
<path d="M122.051 60H113.598L113 61H122.701C122.665 60.9456 122.629 60.8909 122.592 60.8358C122.416 60.571 122.233 60.2968 122.051 60Z" fill="#FFEFF3"/>
<path d="M120.303 59H113L115.988 54H119.082C119.261 56.3303 119.744 57.8516 120.303 59Z" fill="#FFF8EB"/>
<path d="M118.901 59H111.598L114.586 54H117.68C117.859 56.3303 118.341 57.8516 118.901 59Z" fill="#FFEFF3"/>
<path d="M122.901 59H115.598L115 60H123.453C123.266 59.6952 123.08 59.3666 122.901 59Z" fill="#FFE9BA"/>
<path d="M121.848 66H108C108.011 65.9835 108.021 65.9674 108.031 65.9516L110.99 61H120.691C121.509 62.2327 122.155 63.3155 121.917 65.6222C121.917 65.6222 121.902 65.7641 121.848 66Z" fill="#FFF8EB"/>
<path d="M119.848 66H106C106.011 65.9835 106.021 65.9674 106.031 65.9516L108.99 61H118.691C119.509 62.2327 120.155 63.3155 119.917 65.6222C119.917 65.6222 119.902 65.7641 119.848 66Z" fill="#FFEFF3"/>
<path d="M122.774 66H108.926C108.914 66.0189 108.901 66.0385 108.888 66.0586C108.669 66.3971 108.336 66.9115 108.336 67.8779C108.336 69.4104 109.591 70.6564 111.135 70.6564L117.036 70.6134C121.406 70.3297 122.518 67.1146 122.774 66Z" fill="#FFEFF3"/>
<path d="M99.805 98C99.522 98.3192 99.2533 98.6524 99 99H100.269C100.559 98.6503 100.866 98.3171 101.191 98H99.805Z" fill="#D5D8DF"/>
<path d="M122.341 98H121.156L120.52 99H121.705L122.341 98Z" fill="#D5D8DF"/>
<path d="M98.805 98C98.522 98.3192 98.2533 98.6524 98 99H99.2693C99.5585 98.6503 99.8662 98.3171 100.191 98H98.805Z" fill="#939393"/>
<path d="M121.341 98H120.156L119.52 99H120.705L121.341 98Z" fill="#939393"/>
<path d="M100.805 98C100.522 98.3192 100.253 98.6524 100 99H101.269C101.559 98.6503 101.866 98.3171 102.191 98H100.805Z" fill="#EEEEEE"/>
<path d="M123.341 98H122.156L121.52 99H122.705L123.341 98Z" fill="#EEEEEE"/>
<path d="M118.822 98L122.685 91.9312H113.4C106.593 91.9312 100.118 93.6782 96.2852 98H97.6712C101.297 94.4617 107.075 92.9312 113.4 92.9312H120.863L117.636 98H118.822Z" fill="#939393"/>
<path d="M51.5186 145.047V155H49.4746V145.047H51.5186ZM54.376 145.047H56.1123L58.6689 152.354L61.2256 145.047H62.9619L59.3662 155H57.9717L54.376 145.047ZM53.4395 145.047H55.1689L55.4834 152.17V155H53.4395V145.047ZM62.1689 145.047H63.9053V155H61.8545V152.17L62.1689 145.047ZM69.873 146.749L67.166 155H64.9854L68.6836 145.047H70.0713L69.873 146.749ZM72.1221 155L69.4082 146.749L69.1895 145.047H70.5908L74.3096 155H72.1221ZM71.999 151.295V152.901H66.7422V151.295H71.999ZM82.998 149.798V153.742C82.8431 153.929 82.6038 154.132 82.2803 154.351C81.9567 154.565 81.5397 154.749 81.0293 154.904C80.5189 155.059 79.9014 155.137 79.1768 155.137C78.5342 155.137 77.9486 155.032 77.4199 154.822C76.8913 154.608 76.4355 154.296 76.0527 153.886C75.6745 153.476 75.3828 152.974 75.1777 152.382C74.9727 151.785 74.8701 151.104 74.8701 150.338V149.716C74.8701 148.95 74.9681 148.269 75.1641 147.672C75.3646 147.075 75.6494 146.571 76.0186 146.161C76.3877 145.751 76.8275 145.439 77.3379 145.225C77.8483 145.01 78.4157 144.903 79.04 144.903C79.9059 144.903 80.6169 145.045 81.1729 145.327C81.7288 145.605 82.1527 145.993 82.4443 146.489C82.7406 146.981 82.9229 147.547 82.9912 148.185H81.002C80.9518 147.847 80.8561 147.553 80.7148 147.303C80.5736 147.052 80.3708 146.856 80.1064 146.715C79.8467 146.574 79.5094 146.503 79.0947 146.503C78.7529 146.503 78.4476 146.574 78.1787 146.715C77.9144 146.852 77.6911 147.054 77.5088 147.323C77.3265 147.592 77.1875 147.925 77.0918 148.321C76.9961 148.718 76.9482 149.178 76.9482 149.702V150.338C76.9482 150.857 76.9984 151.318 77.0986 151.719C77.1989 152.115 77.347 152.45 77.543 152.724C77.7435 152.993 77.9896 153.195 78.2812 153.332C78.5729 153.469 78.9124 153.537 79.2998 153.537C79.6234 153.537 79.8923 153.51 80.1064 153.455C80.3252 153.4 80.5007 153.334 80.6328 153.257C80.7695 153.175 80.8743 153.097 80.9473 153.024V151.261H79.0742V149.798H82.998ZM91.3311 153.4V155H86.0332V153.4H91.3311ZM86.7031 145.047V155H84.6523V145.047H86.7031ZM90.6406 149.101V150.659H86.0332V149.101H90.6406ZM91.3242 145.047V146.653H86.0332V145.047H91.3242ZM104.114 145.047V155H102.063L98.0645 148.328V155H96.0137V145.047H98.0645L102.07 151.726V145.047H104.114ZM114.074 149.791V150.263C114.074 151.019 113.972 151.698 113.767 152.3C113.562 152.901 113.272 153.414 112.898 153.838C112.525 154.257 112.078 154.578 111.559 154.802C111.044 155.025 110.472 155.137 109.843 155.137C109.218 155.137 108.646 155.025 108.127 154.802C107.612 154.578 107.165 154.257 106.787 153.838C106.409 153.414 106.115 152.901 105.905 152.3C105.7 151.698 105.598 151.019 105.598 150.263V149.791C105.598 149.03 105.7 148.351 105.905 147.754C106.11 147.152 106.4 146.64 106.773 146.216C107.152 145.792 107.598 145.468 108.113 145.245C108.633 145.022 109.205 144.91 109.829 144.91C110.458 144.91 111.03 145.022 111.545 145.245C112.064 145.468 112.511 145.792 112.885 146.216C113.263 146.64 113.555 147.152 113.76 147.754C113.969 148.351 114.074 149.03 114.074 149.791ZM112.003 150.263V149.777C112.003 149.249 111.955 148.784 111.859 148.383C111.764 147.982 111.622 147.645 111.436 147.371C111.249 147.098 111.021 146.893 110.752 146.756C110.483 146.615 110.175 146.544 109.829 146.544C109.483 146.544 109.175 146.615 108.906 146.756C108.642 146.893 108.416 147.098 108.229 147.371C108.047 147.645 107.908 147.982 107.812 148.383C107.717 148.784 107.669 149.249 107.669 149.777V150.263C107.669 150.787 107.717 151.252 107.812 151.657C107.908 152.058 108.049 152.398 108.236 152.676C108.423 152.949 108.651 153.157 108.92 153.298C109.189 153.439 109.496 153.51 109.843 153.51C110.189 153.51 110.497 153.439 110.766 153.298C111.035 153.157 111.26 152.949 111.442 152.676C111.625 152.398 111.764 152.058 111.859 151.657C111.955 151.252 112.003 150.787 112.003 150.263ZM119.536 145.047V155H117.492V145.047H119.536ZM122.599 145.047V146.653H114.478V145.047H122.599ZM128.936 145.047V155H126.885V145.047H128.936ZM132.9 149.299V150.898H128.375V149.299H132.9ZM133.379 145.047V146.653H128.375V145.047H133.379ZM142.744 149.791V150.263C142.744 151.019 142.642 151.698 142.437 152.3C142.231 152.901 141.942 153.414 141.568 153.838C141.195 154.257 140.748 154.578 140.229 154.802C139.714 155.025 139.142 155.137 138.513 155.137C137.888 155.137 137.316 155.025 136.797 154.802C136.282 154.578 135.835 154.257 135.457 153.838C135.079 153.414 134.785 152.901 134.575 152.3C134.37 151.698 134.268 151.019 134.268 150.263V149.791C134.268 149.03 134.37 148.351 134.575 147.754C134.78 147.152 135.07 146.64 135.443 146.216C135.822 145.792 136.268 145.468 136.783 145.245C137.303 145.022 137.875 144.91 138.499 144.91C139.128 144.91 139.7 145.022 140.215 145.245C140.734 145.468 141.181 145.792 141.555 146.216C141.933 146.64 142.225 147.152 142.43 147.754C142.639 148.351 142.744 149.03 142.744 149.791ZM140.673 150.263V149.777C140.673 149.249 140.625 148.784 140.529 148.383C140.434 147.982 140.292 147.645 140.105 147.371C139.919 147.098 139.691 146.893 139.422 146.756C139.153 146.615 138.845 146.544 138.499 146.544C138.153 146.544 137.845 146.615 137.576 146.756C137.312 146.893 137.086 147.098 136.899 147.371C136.717 147.645 136.578 147.982 136.482 148.383C136.387 148.784 136.339 149.249 136.339 149.777V150.263C136.339 150.787 136.387 151.252 136.482 151.657C136.578 152.058 136.719 152.398 136.906 152.676C137.093 152.949 137.321 153.157 137.59 153.298C137.859 153.439 138.166 153.51 138.513 153.51C138.859 153.51 139.167 153.439 139.436 153.298C139.704 153.157 139.93 152.949 140.112 152.676C140.295 152.398 140.434 152.058 140.529 151.657C140.625 151.252 140.673 150.787 140.673 150.263ZM149.717 145.047H151.761V151.623C151.761 152.389 151.597 153.034 151.269 153.558C150.945 154.082 150.496 154.476 149.922 154.74C149.352 155.005 148.696 155.137 147.953 155.137C147.21 155.137 146.549 155.005 145.971 154.74C145.396 154.476 144.945 154.082 144.617 153.558C144.294 153.034 144.132 152.389 144.132 151.623V145.047H146.183V151.623C146.183 152.07 146.253 152.434 146.395 152.717C146.536 152.999 146.739 153.207 147.003 153.339C147.272 153.471 147.589 153.537 147.953 153.537C148.327 153.537 148.644 153.471 148.903 153.339C149.168 153.207 149.368 152.999 149.505 152.717C149.646 152.434 149.717 152.07 149.717 151.623V145.047ZM161.55 145.047V155H159.499L155.5 148.328V155H153.449V145.047H155.5L159.506 151.726V145.047H161.55ZM166.39 155H164.223L164.236 153.4H166.39C166.927 153.4 167.381 153.28 167.75 153.038C168.119 152.792 168.397 152.434 168.584 151.965C168.775 151.495 168.871 150.928 168.871 150.263V149.777C168.871 149.267 168.816 148.818 168.707 148.431C168.602 148.043 168.445 147.717 168.235 147.453C168.026 147.189 167.768 146.991 167.463 146.858C167.158 146.722 166.807 146.653 166.41 146.653H164.182V145.047H166.41C167.076 145.047 167.684 145.161 168.235 145.389C168.791 145.612 169.272 145.933 169.678 146.353C170.083 146.772 170.396 147.273 170.614 147.856C170.838 148.435 170.949 149.08 170.949 149.791V150.263C170.949 150.969 170.838 151.614 170.614 152.197C170.396 152.781 170.083 153.282 169.678 153.701C169.277 154.116 168.796 154.437 168.235 154.665C167.679 154.888 167.064 155 166.39 155ZM165.385 145.047V155H163.334V145.047H165.385Z" fill="#939393"/>
</svg>
