<svg width="277" height="40" viewBox="0 0 277 40" fill="none" xmlns="http://www.w3.org/2000/svg">
<g clip-path="url(#clip0_404_8658)">
<path d="M16.0722 10.3321C17.7081 11.2636 18.9904 12.5372 19.9189 14.1528C20.8474 15.7684 21.3117 17.5732 21.3117 19.56C21.3117 21.5467 20.8769 23.3515 20.0147 24.9671C19.1525 26.5827 17.9661 27.849 16.4554 28.766C14.9447 29.6829 13.2645 30.1414 11.4075 30.1414C9.91154 30.1414 8.51877 29.8358 7.22916 29.2244C5.93956 28.6131 4.84155 27.7617 3.94251 26.6628V36.975C3.94251 37.5572 3.75828 38.0302 3.40456 38.3868C3.04347 38.7434 2.56447 38.918 1.97494 38.918C1.40751 38.918 0.935885 38.7361 0.560057 38.3868C0.184229 38.0302 0 37.5644 0 36.975V19.56C0 17.5732 0.471627 15.7757 1.41488 14.1528C2.35814 12.5372 3.633 11.2636 5.24685 10.3321C6.8607 9.4006 8.65878 8.93484 10.6411 8.93484C12.6234 8.93484 14.4362 9.4006 16.0722 10.3321ZM14.1415 25.7676C15.1879 25.1418 16.0132 24.2903 16.6175 23.206C17.2218 22.1216 17.5239 20.9063 17.5239 19.56C17.5239 18.2136 17.2218 16.991 16.6175 15.8921C16.0132 14.8005 15.1879 13.9345 14.1415 13.3159C13.095 12.69 11.9307 12.3771 10.6411 12.3771C9.35149 12.3771 8.18715 12.69 7.14073 13.3159C6.09431 13.9417 5.27633 14.8005 4.6868 15.8921C4.08989 16.9837 3.79513 18.2063 3.79513 19.56C3.79513 20.9136 4.08989 22.1289 4.6868 23.206C5.27633 24.2903 6.10168 25.1418 7.14073 25.7676C8.18715 26.3935 9.35149 26.7064 10.6411 26.7064C11.9307 26.6992 13.095 26.3862 14.1415 25.7676ZM39.2777 10.3321C40.8916 11.2636 42.1664 12.5372 43.1097 14.1528C44.0529 15.7684 44.5246 17.5732 44.5246 19.56V28.0819C44.5246 28.6423 44.3403 29.108 43.9645 29.4792C43.5887 29.8503 43.1171 30.0322 42.5496 30.0322C41.9822 30.0322 41.5106 29.8503 41.1347 29.4792C40.7589 29.108 40.5747 28.6423 40.5747 28.0819V26.6701C39.6683 27.769 38.5776 28.6204 37.288 29.2317C35.9984 29.843 34.6057 30.1487 33.1097 30.1487C31.2527 30.1487 29.5725 29.6902 28.0618 28.7732C26.5511 27.8563 25.3647 26.59 24.5025 24.9744C23.6403 23.3588 23.2055 21.554 23.2055 19.5672C23.2055 17.5805 23.6698 15.7829 24.5983 14.1601C25.5268 12.5445 26.8091 11.2709 28.445 10.3394C30.081 9.40788 31.8938 8.94212 33.8835 8.94212C35.8732 8.93484 37.6712 9.4006 39.2777 10.3321ZM37.3838 25.7676C38.4303 25.1418 39.2482 24.2903 39.8378 23.206C40.4273 22.1216 40.7294 20.9063 40.7294 19.56C40.7294 18.2136 40.4347 16.991 39.8378 15.8921C39.2409 14.8005 38.4229 13.9345 37.3838 13.3159C36.3374 12.69 35.1731 12.3771 33.8835 12.3771C32.5939 12.3771 31.4295 12.69 30.3831 13.3159C29.3367 13.9417 28.5113 14.8005 27.9071 15.8921C27.3028 16.9837 27.0007 18.2063 27.0007 19.56C27.0007 20.9136 27.3028 22.1289 27.9071 23.206C28.5113 24.2903 29.3367 25.1418 30.3831 25.7676C31.4295 26.3935 32.5939 26.7064 33.8835 26.7064C35.1731 26.6992 36.3448 26.3862 37.3838 25.7676ZM64.8709 10.7688C64.8709 11.0235 64.7972 11.3291 64.6424 11.6857L52.8002 37.972C52.4906 38.7579 51.9895 39.1582 51.2895 39.1582C51.0315 39.1582 50.722 39.0854 50.361 38.9326C49.5872 38.5978 49.204 38.103 49.204 37.4407C49.204 37.1351 49.2777 36.8294 49.4324 36.5238L53.3013 27.9291L44.5983 11.613C44.4656 11.3801 44.4067 11.1181 44.4067 10.8124C44.4067 10.4849 44.5098 10.1793 44.7162 9.89547C44.9225 9.61892 45.1952 9.4006 45.5268 9.24777C45.7626 9.14589 46.0131 9.09494 46.3005 9.09494C47.0227 9.09494 47.5607 9.45154 47.9218 10.1647L55.0035 24.072L61.2305 10.2084C61.5621 9.47337 62.0706 9.10222 62.7412 9.10222C63.0728 9.10222 63.3823 9.16772 63.6697 9.29144C64.4656 9.58981 64.8709 10.0847 64.8709 10.7688ZM67.2437 4.94678C66.7426 4.45191 66.4921 3.85516 66.4921 3.17108C66.4921 2.487 66.7426 1.89024 67.2437 1.39537C67.7448 0.900506 68.3491 0.653072 69.0418 0.653072C69.7345 0.653072 70.3388 0.900506 70.8399 1.39537C71.341 1.89024 71.5916 2.487 71.5916 3.17108C71.5916 3.85516 71.341 4.45191 70.8399 4.94678C70.3388 5.44165 69.7345 5.68909 69.0418 5.68909C68.3491 5.68909 67.7448 5.44165 67.2437 4.94678ZM67.6269 29.4282C67.2511 29.0571 67.0669 28.5913 67.0669 28.0309V11.038C67.0669 10.4558 67.2511 9.9828 67.6269 9.6262C68.0028 9.26961 68.4744 9.08767 69.0418 9.08767C69.6314 9.08767 70.1103 9.26961 70.4714 9.6262C70.8325 9.9828 71.0168 10.4558 71.0168 11.038V28.0382C71.0168 28.5986 70.8325 29.0643 70.4714 29.4355C70.1103 29.7994 69.6314 29.9886 69.0418 29.9886C68.4744 29.9886 68.0028 29.7994 67.6269 29.4282ZM89.5502 10.0483C90.9651 10.8124 92.0779 11.9259 92.8737 13.3887C93.6696 14.8514 94.0749 16.6199 94.0749 18.6794V28.0746C94.0749 28.635 93.8907 29.1007 93.5149 29.4719C93.139 29.843 92.6674 30.025 92.1 30.025C91.5325 30.025 91.0609 29.843 90.6851 29.4719C90.3093 29.1007 90.125 28.635 90.125 28.0746V18.6794C90.125 16.6199 89.565 15.0552 88.4449 14C87.3247 12.9447 85.8362 12.4135 83.9791 12.4135C82.8959 12.4135 81.9084 12.6318 81.0167 13.0612C80.1251 13.4978 79.4324 14.08 78.9313 14.815C78.4301 15.5573 78.1796 16.3797 78.1796 17.2967V28.0673C78.1796 28.6277 77.9954 29.0935 77.6416 29.4646C77.2806 29.8358 76.8016 30.0177 76.212 30.0177C75.6446 30.0177 75.173 29.8358 74.7971 29.4646C74.4213 29.0935 74.2371 28.6277 74.2371 28.0673V11.038C74.2371 10.4558 74.4213 9.9828 74.7971 9.6262C75.173 9.26961 75.6446 9.08767 76.212 9.08767C76.8016 9.08767 77.2806 9.26961 77.6416 9.6262C78.0027 9.9828 78.1796 10.4558 78.1796 11.038V11.4601C79.0049 10.645 79.985 10.0119 81.1199 9.56798C82.2547 9.12405 83.4633 8.89845 84.7529 8.89845C86.5289 8.89845 88.128 9.28416 89.5502 10.0483ZM112.778 10.2957C114.392 11.1981 115.652 12.4571 116.566 14.0582C117.479 15.6592 117.936 17.4932 117.936 19.56V27.8053C117.936 29.8139 117.487 31.6478 116.58 33.3071C115.674 34.9591 114.406 36.269 112.771 37.2224C111.135 38.1757 109.285 38.6561 107.222 38.6561C105.364 38.6561 103.64 38.2922 102.041 37.5644C100.442 36.8367 99.1007 35.8033 98.0174 34.4497C97.73 34.0931 97.59 33.7365 97.59 33.3799C97.59 32.8414 97.8627 32.3902 98.4006 32.0044C98.7617 31.7788 99.1228 31.6624 99.4839 31.6624C100.125 31.6624 100.656 31.9317 101.068 32.4629C101.761 33.3508 102.638 34.0349 103.699 34.5079C104.753 34.9809 105.954 35.2138 107.295 35.2138C108.555 35.2138 109.705 34.9154 110.737 34.3187C111.768 33.7219 112.594 32.8414 113.213 31.6842C113.832 30.5271 114.141 29.1444 114.141 27.5361V25.6658C113.338 27.063 112.284 28.1619 110.972 28.9479C109.661 29.7411 108.172 30.1341 106.521 30.1341C104.613 30.1341 102.903 29.6829 101.393 28.7805C99.8818 27.8781 98.7101 26.6191 97.87 25.0181C97.0299 23.417 96.6099 21.5904 96.6099 19.5527C96.6099 17.4932 97.0594 15.6592 97.9658 14.0509C98.8649 12.4499 100.132 11.1909 101.754 10.2885C103.375 9.38604 105.224 8.93484 107.288 8.93484C109.336 8.93484 111.164 9.38604 112.778 10.2957ZM110.84 25.7822C111.886 25.1709 112.697 24.3267 113.279 23.2424C113.861 22.158 114.149 20.9281 114.149 19.5527C114.149 18.1772 113.861 16.9401 113.279 15.8484C112.697 14.7568 111.886 13.8981 110.84 13.2868C109.793 12.6755 108.614 12.3698 107.303 12.3698C105.991 12.3698 104.804 12.6755 103.765 13.2868C102.719 13.8981 101.901 14.7495 101.311 15.8484C100.715 16.9401 100.42 18.1772 100.42 19.5527C100.42 20.9281 100.715 22.158 101.311 23.2424C101.901 24.3267 102.726 25.1709 103.765 25.7822C104.812 26.3935 105.991 26.6992 107.303 26.6992C108.614 26.6992 109.801 26.3935 110.84 25.7822ZM131.112 26.6992C131.437 27.0558 131.599 27.5142 131.599 28.0746C131.599 28.635 131.385 29.0935 130.958 29.4501C130.53 29.8066 129.985 29.9813 129.314 29.9813H128.622C127.354 29.9813 126.205 29.6538 125.158 29.0061C124.112 28.3584 123.294 27.4706 122.704 26.3498C122.107 25.2291 121.812 23.9701 121.812 22.5656V13.1412H120.037C119.491 13.1412 119.056 12.9884 118.725 12.6827C118.386 12.3771 118.224 11.9987 118.224 11.5402C118.224 11.0308 118.393 10.6232 118.725 10.3176C119.056 10.0119 119.499 9.85908 120.037 9.85908H121.812V4.35003C121.812 3.78966 121.989 3.33118 122.358 2.97459C122.719 2.61799 123.183 2.43605 123.751 2.43605C124.318 2.43605 124.782 2.61799 125.143 2.97459C125.504 3.33118 125.689 3.78966 125.689 4.35003V9.8518H128.975C129.513 9.8518 129.955 10.0046 130.287 10.3103C130.619 10.6159 130.788 11.0235 130.788 11.5329C130.788 11.9914 130.619 12.3698 130.287 12.6755C129.948 12.9811 129.513 13.1339 128.975 13.1339H125.689V22.5728C125.689 23.5917 125.969 24.4431 126.536 25.1345C127.104 25.8186 127.796 26.1679 128.622 26.1679H129.933C130.398 26.1679 130.788 26.3426 131.112 26.6992ZM137.59 30.8983C135.969 29.9959 134.701 28.7369 133.802 27.1358C132.896 25.5348 132.446 23.7081 132.446 21.6704C132.446 19.6109 132.896 17.777 133.802 16.1687C134.701 14.5676 135.969 13.3086 137.59 12.4062C139.211 11.5038 141.061 11.0526 143.124 11.0526C145.158 11.0526 146.986 11.5038 148.599 12.4062C150.213 13.3086 151.473 14.5676 152.387 16.1687C153.301 17.7697 153.758 19.6036 153.758 21.6704C153.758 23.7081 153.308 25.5275 152.402 27.1358C151.496 28.7369 150.243 29.9959 148.629 30.8983C147.015 31.8007 145.18 32.2519 143.117 32.2519C141.061 32.2592 139.211 31.8007 137.59 30.8983ZM146.661 27.8999C147.708 27.2886 148.518 26.4445 149.101 25.3601C149.683 24.2758 149.97 23.0459 149.97 21.6704C149.97 20.295 149.683 19.0578 149.101 17.9662C148.518 16.8746 147.708 16.0158 146.661 15.4045C145.615 14.7932 144.436 14.4876 143.124 14.4876C141.812 14.4876 140.626 14.7932 139.587 15.4045C138.541 16.0158 137.723 16.8673 137.133 17.9662C136.536 19.0578 136.241 20.295 136.241 21.6704C136.241 23.0459 136.536 24.2758 137.133 25.3601C137.723 26.4445 138.548 27.2886 139.587 27.8999C140.633 28.5113 141.812 28.8169 143.124 28.8169C144.436 28.8169 145.615 28.5113 146.661 27.8999ZM160.795 26.0442C159.174 25.1418 157.907 23.8828 157.008 22.2817C156.101 20.6807 155.652 18.854 155.652 16.8163C155.652 14.7568 156.101 12.9229 157.008 11.3146C157.907 9.71353 159.174 8.45453 160.795 7.55212C162.417 6.64971 164.266 6.19851 166.33 6.19851C168.364 6.19851 170.191 6.64971 171.805 7.55212C173.419 8.45453 174.679 9.71353 175.593 11.3146C176.507 12.9156 176.963 14.7495 176.963 16.8163C176.963 18.854 176.514 20.6734 175.607 22.2817C174.701 23.8828 173.448 25.1418 171.834 26.0442C170.221 26.9466 168.386 27.3978 166.322 27.3978C164.266 27.3978 162.424 26.9466 160.795 26.0442ZM169.867 23.0459C170.913 22.4346 171.724 21.5904 172.306 20.506C172.888 19.4217 173.176 18.1918 173.176 16.8163C173.176 15.4409 172.888 14.2037 172.306 13.1121C171.724 12.0205 170.913 11.1617 169.867 10.5504C168.82 9.93913 167.641 9.63348 166.33 9.63348C165.018 9.63348 163.832 9.93913 162.792 10.5504C161.746 11.1617 160.928 12.0132 160.339 13.1121C159.742 14.2037 159.447 15.4409 159.447 16.8163C159.447 18.1918 159.742 19.4217 160.339 20.506C160.928 21.5904 161.753 22.4346 162.792 23.0459C163.839 23.6572 165.018 23.9628 166.33 23.9628C167.649 23.9628 168.828 23.6572 169.867 23.0459ZM207.627 11.0744C209.005 12.5226 209.697 14.5531 209.697 17.1511V28.0746C209.697 28.635 209.513 29.1007 209.152 29.4719C208.791 29.843 208.312 30.025 207.722 30.025C207.155 30.025 206.683 29.843 206.307 29.4719C205.932 29.1007 205.747 28.635 205.747 28.0746V17.1511C205.747 15.601 205.357 14.4221 204.568 13.6143C203.78 12.8137 202.733 12.4135 201.414 12.4135C200.073 12.4135 198.968 12.872 198.106 13.7889C197.243 14.7059 196.809 15.8776 196.809 17.3039V28.0746C196.809 28.635 196.624 29.1007 196.263 29.4719C195.902 29.843 195.423 30.025 194.834 30.025C194.266 30.025 193.795 29.843 193.419 29.4719C193.043 29.1007 192.859 28.635 192.859 28.0746V17.1511C192.859 15.601 192.468 14.4221 191.68 13.6143C190.891 12.8137 189.845 12.4135 188.526 12.4135C187.155 12.4135 186.042 12.872 185.18 13.7889C184.318 14.7059 183.883 15.8776 183.883 17.3039V28.0746C183.883 28.635 183.699 29.1007 183.345 29.4719C182.984 29.843 182.505 30.025 181.915 30.025C181.348 30.025 180.876 29.843 180.501 29.4719C180.125 29.1007 179.941 28.635 179.941 28.0746V11.0744C179.941 10.4922 180.125 10.0192 180.501 9.66259C180.876 9.30599 181.348 9.13133 181.915 9.13133C182.483 9.13133 182.947 9.30599 183.308 9.64803C183.669 9.99007 183.861 10.4413 183.89 11.0016C184.561 10.3394 185.357 9.82269 186.285 9.45154C187.214 9.08039 188.216 8.89845 189.299 8.89845C190.611 8.89845 191.798 9.16044 192.837 9.68442C193.883 10.2084 194.738 10.9507 195.408 11.9186C196.182 10.9798 197.148 10.2375 198.312 9.70625C199.469 9.175 200.758 8.90573 202.181 8.90573C204.428 8.89845 206.241 9.6262 207.627 11.0744ZM232.203 9.58981C232.564 9.94641 232.748 10.4194 232.748 11.0016V28.0382C232.748 28.5986 232.564 29.0643 232.203 29.4355C231.842 29.8066 231.363 29.9886 230.773 29.9886C230.206 29.9886 229.734 29.8066 229.358 29.4355C228.982 29.0643 228.798 28.5986 228.798 28.0382V27.6161C227.973 28.4312 226.993 29.0643 225.858 29.5083C224.723 29.9522 223.515 30.1778 222.225 30.1778C220.449 30.1778 218.85 29.7994 217.428 29.0352C216.005 28.2711 214.9 27.1576 214.104 25.6949C213.308 24.2321 212.903 22.4637 212.903 20.4041V11.0016C212.903 10.4413 213.087 9.97552 213.463 9.60437C213.839 9.23322 214.31 9.05128 214.878 9.05128C215.445 9.05128 215.917 9.23322 216.293 9.60437C216.669 9.97552 216.853 10.4413 216.853 11.0016V20.3969C216.853 22.4564 217.413 24.0211 218.533 25.0763C219.653 26.1315 221.142 26.6628 222.999 26.6628C224.082 26.6628 225.069 26.4445 225.961 26.0151C226.853 25.5857 227.545 24.9962 228.047 24.2612C228.548 23.5262 228.798 22.6966 228.798 21.7796V11.0089C228.798 10.4267 228.982 9.95369 229.358 9.59709C229.734 9.24049 230.206 9.05856 230.773 9.05856C231.37 9.05128 231.842 9.23322 232.203 9.58981ZM240.906 28.766C239.285 27.849 238.01 26.5827 237.096 24.9671C236.182 23.3515 235.725 21.5467 235.725 19.56C235.725 17.5223 236.167 15.6956 237.059 14.08C237.951 12.4644 239.196 11.2054 240.795 10.2957C242.394 9.39332 244.2 8.94212 246.212 8.94212C249.255 8.94212 251.783 10.0847 253.794 12.3771C254.052 12.6609 254.185 12.9884 254.185 13.3668C254.185 13.9272 253.898 14.4002 253.338 14.7787C253.08 14.9606 252.785 15.0479 252.446 15.0479C251.849 15.0479 251.348 14.815 250.935 14.3638C250.287 13.6798 249.587 13.1703 248.828 12.8574C248.069 12.5372 247.199 12.3771 246.219 12.3771C244.229 12.3771 242.623 13.0321 241.385 14.342C240.147 15.652 239.528 17.3913 239.528 19.56C239.528 20.9354 239.815 22.1653 240.397 23.2496C240.979 24.334 241.79 25.1782 242.836 25.7895C243.883 26.4008 245.077 26.7064 246.418 26.7064C248.172 26.7064 249.587 26.2625 250.67 25.3674C251.156 25.0108 251.635 24.8361 252.1 24.8361C252.461 24.8361 252.792 24.9526 253.109 25.1782C253.595 25.5857 253.846 26.0442 253.846 26.5536C253.846 26.932 253.691 27.2814 253.382 27.587C251.525 29.2899 249.203 30.1487 246.418 30.1487C244.362 30.1414 242.534 29.6829 240.906 28.766ZM272.475 10.0483C273.89 10.8124 275.003 11.9259 275.799 13.3887C276.595 14.8514 277 16.6199 277 18.6794V28.0746C277 28.635 276.816 29.1007 276.44 29.4719C276.064 29.843 275.592 30.025 275.025 30.025C274.458 30.025 273.986 29.843 273.61 29.4719C273.234 29.1007 273.05 28.635 273.05 28.0746V18.6794C273.05 16.6199 272.49 15.0552 271.37 14C270.25 12.9447 268.761 12.4135 266.904 12.4135C265.821 12.4135 264.833 12.6318 263.942 13.0612C263.05 13.4978 262.357 14.08 261.856 14.815C261.355 15.5573 261.105 16.3797 261.105 17.2967V28.0673C261.105 28.6277 260.928 29.0935 260.567 29.4646C260.206 29.8358 259.727 30.0177 259.137 30.0177C258.57 30.0177 258.098 29.8358 257.722 29.4646C257.346 29.0935 257.162 28.6277 257.162 28.0673V2.10129C257.162 1.51909 257.346 1.04606 257.722 0.689459C258.098 0.332863 258.57 0.158203 259.137 0.158203C259.727 0.158203 260.206 0.34014 260.567 0.689459C260.928 1.04606 261.105 1.51909 261.105 2.10129V11.4601C261.93 10.645 262.91 10.0119 264.045 9.56798C265.18 9.12405 266.388 8.89845 267.678 8.89845C269.454 8.89845 271.053 9.28416 272.475 10.0483Z" fill="#040C53"/>
</g>
<defs>
<clipPath id="clip0_404_8658">
<rect width="277" height="40" fill="white"/>
</clipPath>
</defs>
</svg>
